# xmcd CD database file
#
# Track frame offsets:
#	150
#	9898
#	20969
#	34939
#	47499
#	57545
#	71557
#	82393
#	95088
#	105087
#	116089
#	128047
#
# Disc length: 1922 seconds
#
# Revision: 3
# Processed by: cddbd v1.5.2PL0 Copyright (c) Steve Scherf et al.
# Submitted via: CDex 2.21
#
DISCID=a207800c
DTITLE=Brenda Lee - Brenda, That's All
DYEAR=1962
DGENRE=Country
TTITLE0=I'm Sitting On Top Of The World
TTITLE1=Fool #1
TTITLE2=White Silver Sands
TTITLE3=Just Out Of Reach
TTITLE4=Sweethearts On Parade
TTITLE5=It's A Lonesome Old Town (When You're Not Around)
TTITLE6=Organ Grinder's Swing
TTITLE7=Gonna Find Me A Bluebird
TTITLE8=Why Me
TTITLE9=Valley Of Tears
TTITLE10=Someday You'll Want Me To Want you
TTITLE11=You Can Depend On Me
EXTD=YEAR: 1962
EXTT0=
EXTT1=
EXTT2=
EXTT3=
EXTT4=
EXTT5=
EXTT6=
EXTT7=
EXTT8=
EXTT9=
EXTT10=
EXTT11=
PLAYORDER=
